<svg xmlns="http://www.w3.org/2000/svg" viewBox="0 0 500 500"><g id="freepik--Background--inject-170"><path id="freepik--background--inject-170" d="M66.09,403.46C-3.07,348.78,8.78,250,66.73,172.7,155.59,54.16,296,9.6,401.37,83.43c92,64.49,93.54,237.21,69.48,289.85-23,50.22-81,95.65-200.76,99.41C164.33,476,103.28,432.86,66.09,403.46Z" style="fill:#37474f"></path><g id="freepik--Stars--inject-170"><path d="M344.94,84.15a1.56,1.56,0,1,1-1.56-1.56A1.56,1.56,0,0,1,344.94,84.15Z" style="fill:#fff"></path><circle cx="138.39" cy="138.36" r="1.56" style="fill:#fff;opacity:0.30000000000000004"></circle><path d="M211.91,89.1a1.56,1.56,0,1,1-1.56-1.56A1.56,1.56,0,0,1,211.91,89.1Z" style="fill:#fff"></path><g style="opacity:0.30000000000000004"><path d="M387.33,110a.84.84,0,1,1-1.09.48A.84.84,0,0,1,387.33,110Z" style="fill:#fff"></path><path d="M392.7,115.09a1.68,1.68,0,1,1-2.17,1A1.68,1.68,0,0,1,392.7,115.09Z" style="fill:#fff"></path><g style="opacity:0.5"><path d="M419,159.76a1.56,1.56,0,1,1-1.31-1.77A1.57,1.57,0,0,1,419,159.76Z" style="fill:#fff"></path></g></g><g style="opacity:0.5"><path d="M199.42,130.09a1.77,1.77,0,1,1-1.77-1.76A1.77,1.77,0,0,1,199.42,130.09Z" style="fill:#fff"></path><path d="M194.15,134.91a1.06,1.06,0,1,1-1.05-1A1,1,0,0,1,194.15,134.91Z" style="fill:#fff"></path><path d="M191.16,128.33a.85.85,0,1,1-.85-.85A.85.85,0,0,1,191.16,128.33Z" style="fill:#fff"></path></g><g style="opacity:0.5"><path d="M361.33,141a1.56,1.56,0,1,1-1.31-1.76A1.54,1.54,0,0,1,361.33,141Z" style="fill:#fff"></path></g></g></g><g id="freepik--Sky--inject-170"><g id="freepik--Moon--inject-170"><g id="freepik--stars--inject-170"><path d="M69.33,46.25c0,2.38,3.72,2.38,3.68,0S69.3,43.86,69.33,46.25Z" style="fill:#e6e6e6"></path><path d="M41.5,70.49l3.61,1.25c1.3,5.07,1,5,4.08.78,5.29.3,5.06.66,2-3.64,1.91-4.94,2.18-4.61-2.85-3-4.11-3.35-3.71-3.51-3.76,1.76C44.4,68,40.11,69.81,41.5,70.49Z" style="fill:#e6e6e6"></path></g><path id="freepik--moon--inject-170" d="M123.32,83.37v.13A25.21,25.21,0,1,1,99.2,55.85a19.9,19.9,0,1,0,24.12,27.52Z" style="fill:#BA68C8"></path><path d="M162.75,59.61H157a4.46,4.46,0,0,0,.05-.63V57.53a4.64,4.64,0,0,0-4.64-4.64,4.59,4.59,0,0,0-2.77.92,6.95,6.95,0,0,0-13.84.85v2.16a6.84,6.84,0,0,0,.59,2.79h-4.77a2.58,2.58,0,1,0,0,5.15h31.13a2.58,2.58,0,0,0,0-5.15Z" style="fill:#e0e0e0"></path><path d="M40.42,124.48l3.17-.53v-6c0-4.8,4.41-8.15,9.21-8.15h0a8.68,8.68,0,0,1,8.68,8.68v.87a6.24,6.24,0,0,1,4-1.47h0a6.24,6.24,0,0,1,6.25,6.24v.4h4.42a4.12,4.12,0,0,1,0,8.23H40.42a4.12,4.12,0,0,1,0-8.23Z" style="fill:#e0e0e0"></path></g></g><g id="freepik--Shadow--inject-170"><path id="freepik--shadow--inject-170" d="M283,453.3l156.31-90.17c2.15-1.23,2.15-3.24,0-4.48L217.89,230.79a8.56,8.56,0,0,0-7.76,0L53.82,321c-2.14,1.23-2.14,3.24,0,4.47L275.28,453.3A8.56,8.56,0,0,0,283,453.3Z" style="fill:#263238"></path></g><g id="freepik--Nightstand--inject-170"><g id="freepik--nightstand--inject-170"><polygon points="314.43 240.24 307.55 236.27 314.43 234.28 314.43 240.24" style="fill:#BA68C8"></polygon><polygon points="314.43 240.24 307.55 236.27 314.43 234.28 314.43 240.24" style="opacity:0.6000000000000001"></polygon><polygon points="279.95 254.19 279.95 260.52 240.27 237.56 240.27 231.23 279.95 254.19" style="fill:#BA68C8"></polygon><polygon points="279.95 254.19 279.95 260.52 240.27 237.56 240.27 231.23 279.95 254.19" style="opacity:0.6000000000000001"></polygon><polygon points="236.83 181.55 276.51 204.51 276.51 256.18 236.83 233.21 236.83 181.55" style="fill:#BA68C8"></polygon><polygon points="236.83 181.55 276.51 204.51 276.51 256.18 236.83 233.21 236.83 181.55" style="opacity:0.55"></polygon><polygon points="276.51 204.51 321.31 178.65 321.31 230.31 276.51 256.18 276.51 204.51" style="fill:#BA68C8"></polygon><polygon points="276.51 204.51 321.31 178.65 321.31 230.31 276.51 256.18 276.51 204.51" style="opacity:0.45"></polygon><polygon points="321.31 178.65 281.63 155.68 236.83 181.55 276.51 204.51 321.31 178.65" style="fill:#BA68C8"></polygon><polygon points="321.31 178.65 281.63 155.68 236.83 181.55 276.51 204.51 321.31 178.65" style="opacity:0.30000000000000004"></polygon><polygon points="279.95 206.5 317.87 184.61 317.87 196.53 279.95 218.42 279.95 206.5" style="fill:#BA68C8"></polygon><polygon points="279.95 206.5 317.87 184.61 317.87 196.53 279.95 218.42 279.95 206.5" style="opacity:0.2"></polygon><polygon points="279.95 222.4 317.87 200.5 317.87 228.32 279.95 250.22 279.95 222.4" style="opacity:0.2"></polygon><polygon points="279.95 260.52 283.4 258.54 283.4 252.2 279.95 254.19 279.95 260.52" style="fill:#BA68C8"></polygon><polygon points="279.95 260.52 283.4 258.54 283.4 252.2 279.95 254.19 279.95 260.52" style="opacity:0.55"></polygon><polygon points="314.43 240.24 317.87 238.26 317.87 232.29 314.43 234.28 314.43 240.24" style="fill:#BA68C8"></polygon><polygon points="314.43 240.24 317.87 238.26 317.87 232.29 314.43 234.28 314.43 240.24" style="opacity:0.55"></polygon><path d="M291.71,202.23c0,.54,1.64,0,3.67-1.13l6.42-3.71c2-1.17,3.67-2.56,3.67-3.11v-1l-13.76,7.94Z" style="fill:#37474f"></path><polygon points="317.87 228.32 293.95 214.32 279.95 222.4 279.95 250.22 317.87 228.32" style="opacity:0.2"></polygon></g></g><g id="freepik--Lamp--inject-170"><g id="freepik--Light--inject-170"><circle cx="280.66" cy="121.23" r="30.33" transform="translate(98.19 366.53) rotate(-76.72)" style="fill:#BA68C8;opacity:0.1"></circle><circle cx="280.66" cy="121.23" r="40.2" transform="translate(98.19 366.53) rotate(-76.72)" style="fill:#BA68C8;opacity:0.1"></circle><circle cx="280.66" cy="121.23" r="50.08" transform="translate(98.19 366.53) rotate(-76.72)" style="fill:#BA68C8;opacity:0.1"></circle></g><g id="freepik--lamp--inject-170"><path d="M290.55,172a3,3,0,0,0-.08-.79,11.8,11.8,0,0,0-4.8-7.16h-10a11.88,11.88,0,0,0-4.8,7.16,3.47,3.47,0,0,0-.07.79s0,.13,0,.13c.09,1.39,1,2.76,2.88,3.82a15.48,15.48,0,0,0,14,0c1.83-1.06,2.78-2.43,2.88-3.82C290.54,172.13,290.55,172,290.55,172Z" style="fill:#263238"></path><path d="M275.9,163.89c-2.63,1.52-2.63,4,0,5.5a10.55,10.55,0,0,0,9.51,0c2.63-1.52,2.63-4,0-5.5A10.55,10.55,0,0,0,275.9,163.89Z" style="fill:#37474f"></path><path d="M282,130.42h-2.74v35.17h0a.63.63,0,0,0,.39.62,2.12,2.12,0,0,0,1.93,0c.3-.17.43-.4.39-.62h0Z" style="fill:#263238"></path><path d="M300.17,129.24h0L291,105.8H270.32l-9.19,23.44h0c-1.3,3.67.49,7.63,5.42,10.47,7.79,4.5,20.41,4.5,28.19,0C299.68,136.87,301.48,132.91,300.17,129.24Z" style="fill:#BA68C8"></path><path d="M300.17,129.24h0L291,105.8H270.32l-9.19,23.44h0c-1.3,3.67.49,7.63,5.42,10.47,7.79,4.5,20.41,4.5,28.19,0C299.68,136.87,301.48,132.91,300.17,129.24Z" style="fill:#fff;opacity:0.4"></path><ellipse cx="280.66" cy="107.1" rx="10.57" ry="6.1" style="fill:#BA68C8"></ellipse><ellipse cx="280.66" cy="107.1" rx="10.57" ry="6.1" style="fill:#fff;opacity:0.7000000000000001"></ellipse><path d="M280.66,111.7a13.16,13.16,0,0,1-6.48-1.53c-1.51-.87-2.34-2-2.34-3.07s.83-2.2,2.34-3.07a14.38,14.38,0,0,1,12.95,0c1.52.87,2.35,2,2.35,3.07s-.83,2.2-2.35,3.07A13.14,13.14,0,0,1,280.66,111.7Z" style="fill:#BA68C8"></path></g></g><g id="freepik--Bed--inject-170"><g id="freepik--bed--inject-170"><path d="M79.57,328.56l-5-2.9a5.79,5.79,0,0,1-2.62-4.52V243a5.8,5.8,0,0,1,2.62-4.53L220.17,154.4a5.78,5.78,0,0,1,5.22,0l5.05,2.89a5.76,5.76,0,0,1,2.62,4.53V240a5.76,5.76,0,0,1-2.62,4.53L84.8,328.56A5.8,5.8,0,0,1,79.57,328.56Z" style="fill:#BA68C8"></path><path d="M79.57,328.56l-5-2.9a5.79,5.79,0,0,1-2.62-4.52V243a5.8,5.8,0,0,1,2.62-4.53L220.17,154.4a5.78,5.78,0,0,1,5.22,0l5.05,2.89a5.76,5.76,0,0,1,2.62,4.53V240a5.76,5.76,0,0,1-2.62,4.53L84.8,328.56A5.8,5.8,0,0,1,79.57,328.56Z" style="opacity:0.30000000000000004"></path><path d="M233.06,161.82V240a5.76,5.76,0,0,1-2.62,4.53L84.8,328.56c-1.45.83-2.62.15-2.62-1.51V248.9a5.78,5.78,0,0,1,2.62-4.53l145.64-84.06C231.89,159.48,233.06,160.15,233.06,161.82Z" style="fill:#BA68C8"></path><path d="M233.06,161.82V240a5.76,5.76,0,0,1-2.62,4.53L84.8,328.56c-1.45.83-2.62.15-2.62-1.51V248.9a5.78,5.78,0,0,1,2.62-4.53l145.64-84.06C231.89,159.48,233.06,160.15,233.06,161.82Z" style="opacity:0.45"></path><path d="M84.19,328.83a5.78,5.78,0,0,1-4.62-.28l-5-2.89a5.78,5.78,0,0,1-2.61-4.52V243a5.33,5.33,0,0,1,.76-2.57L83,246.33a5.33,5.33,0,0,0-.76,2.57v78.15C82.19,328.47,83.05,329.17,84.19,328.83Z" style="fill:#BA68C8"></path><path d="M84.19,328.83a5.78,5.78,0,0,1-4.62-.28l-5-2.89a5.78,5.78,0,0,1-2.61-4.52V243a5.33,5.33,0,0,1,.76-2.57L83,246.33a5.33,5.33,0,0,0-.76,2.57v78.15C82.19,328.47,83.05,329.17,84.19,328.83Z" style="opacity:0.55"></path><path d="M291.75,411.42l-12.1-7a2.86,2.86,0,0,0-2.61,0l-12.1,7a2.71,2.71,0,0,0-.93,1h0c0,.08-.07.17-.11.25a2.59,2.59,0,0,0-.27,1v19.63h0a2.9,2.9,0,0,0,1.21,2.18s.06.06.1.08l12.1,7h0a.67.67,0,0,0,.15.06,2.32,2.32,0,0,0,.46.18,3.17,3.17,0,0,0,.69.08,2.65,2.65,0,0,0,1.31-.32l12.1-7a2.9,2.9,0,0,0,1.31-2.26V413.68A2.9,2.9,0,0,0,291.75,411.42Z" style="fill:#455a64"></path><path d="M279.65,442.56l12.1-7a2.9,2.9,0,0,0,1.31-2.26V413.68c0-.83-.59-1.17-1.31-.75l-12.1,7a2.89,2.89,0,0,0-1.3,2.27v19.63C278.34,442.64,278.93,443,279.65,442.56Z" style="fill:#37474f"></path><path d="M423,335.66l-12.1-7a2.86,2.86,0,0,0-2.61,0l-12.1,7a2.66,2.66,0,0,0-.93,1h0c0,.07-.07.16-.11.24a2.59,2.59,0,0,0-.27,1v19.64h0a2.9,2.9,0,0,0,1.21,2.18.87.87,0,0,0,.1.08l12.09,7h0a.67.67,0,0,0,.15.06,2.32,2.32,0,0,0,.46.18,3.17,3.17,0,0,0,.69.08,2.67,2.67,0,0,0,1.31-.32l12.1-7a2.89,2.89,0,0,0,1.3-2.26V337.92A2.89,2.89,0,0,0,423,335.66Z" style="fill:#455a64"></path><path d="M410.91,366.8l12.1-7a2.89,2.89,0,0,0,1.3-2.26V337.92c0-.83-.58-1.17-1.3-.75l-12.1,7a2.9,2.9,0,0,0-1.31,2.27v19.63C409.6,366.88,410.19,367.22,410.91,366.8Z" style="fill:#37474f"></path><path d="M227.83,217.64,87.41,298.69a11.54,11.54,0,0,0-5.23,9.05v5a11.55,11.55,0,0,0,5.23,9.06L273.12,429a11.52,11.52,0,0,0,10.45,0l140.42-81a11.55,11.55,0,0,0,5.23-9.06v-5a11.54,11.54,0,0,0-5.23-9.05L238.28,217.64A11.52,11.52,0,0,0,227.83,217.64Z" style="fill:#455a64"></path><path d="M429.22,333.92v5a11.55,11.55,0,0,1-5.23,9.05L283.57,429a10.71,10.71,0,0,1-5.22,1.24v-17a10.61,10.61,0,0,0,5.22-1.25L424,330.9c2.69-1.57,2.87-4,.53-5.7A11.69,11.69,0,0,1,429.22,333.92Z" style="fill:#263238"></path><path d="M87.42,304.73c-2.75-1.59-2.89-4.1-.41-5.77a11.64,11.64,0,0,0-4.83,8.78v5a11.55,11.55,0,0,0,5.23,9.06L273.12,429a10.59,10.59,0,0,0,5.23,1.25v-17a10.62,10.62,0,0,1-5.23-1.25Z" style="fill:#37474f"></path><path d="M227.83,189.37,87.41,270.42a11.55,11.55,0,0,0-5.23,9.05v10.58a11.55,11.55,0,0,0,5.23,9.06L273.12,406.32a11.52,11.52,0,0,0,10.45,0l140.42-81a11.55,11.55,0,0,0,5.23-9.06V305.64a11.55,11.55,0,0,0-5.23-9.05L238.28,189.37A11.59,11.59,0,0,0,227.83,189.37Z" style="fill:#BA68C8"></path><path d="M87.41,276.46,273.12,383.67a11.52,11.52,0,0,0,10.45,0l140.42-81c2.89-1.67,2.89-4.37,0-6L238.28,189.37a11.59,11.59,0,0,0-10.45,0L87.41,270.42C84.52,272.09,84.52,274.79,87.41,276.46Z" style="fill:#fff;opacity:0.8"></path><path d="M429.22,305.65v10.58a11.55,11.55,0,0,1-5.23,9L283.57,406.33a10.71,10.71,0,0,1-5.22,1.24V384.92a10.71,10.71,0,0,0,5.22-1.24L424,302.63c2.69-1.57,2.87-4,.53-5.7A11.71,11.71,0,0,1,429.22,305.65Z" style="fill:#fff;opacity:0.5"></path><path d="M87.42,276.46c-2.75-1.58-2.89-4.1-.41-5.77a11.66,11.66,0,0,0-4.83,8.78v10.58a11.55,11.55,0,0,0,5.23,9.06L273.12,406.32a10.59,10.59,0,0,0,5.23,1.25V384.92a10.72,10.72,0,0,1-5.23-1.24Z" style="fill:#fff;opacity:0.6000000000000001"></path><path d="M112,290.67v39.64l166.32,96V384.92a10.75,10.75,0,0,1-5.24-1.25Z" style="fill:#BA68C8"></path><path d="M112,290.67v39.64l166.32,96V384.92a10.75,10.75,0,0,1-5.24-1.25Z" style="opacity:0.30000000000000004"></path><path d="M424,302.63c2.69-1.57,2.87-4,.53-5.7a11.71,11.71,0,0,1,4.7,8.72v33.6L278.35,426.33V384.92a10.76,10.76,0,0,0,5.22-1.24Z" style="fill:#BA68C8"></path><path d="M424,302.63c2.69-1.57,2.87-4,.53-5.7a11.71,11.71,0,0,1,4.7,8.72v33.6L278.35,426.33V384.92a10.76,10.76,0,0,0,5.22-1.24Z" style="opacity:0.45"></path><path d="M424,296.59l-161.08-93L112,290.67l161.09,93a11.52,11.52,0,0,0,10.45,0l140.42-81C426.88,301,426.88,298.26,424,296.59Z" style="fill:#BA68C8"></path><path d="M424,296.59l-161.08-93L112,290.67l161.09,93a11.52,11.52,0,0,0,10.45,0l140.42-81C426.88,301,426.88,298.26,424,296.59Z" style="opacity:0.2"></path><polygon points="131.65 302 131.65 341.71 134.11 343.05 134.1 303.41 131.65 302" style="opacity:0.2"></polygon><polygon points="131.65 302 282.54 214.9 285.09 216.4 134.1 303.41 131.65 302" style="opacity:0.1"></polygon><path d="M262.83,213.26c1.7-6.21-.8-9.45-4.23-15.22s-11.38-16.92-14.64-21.7-6.89-9.47-8.85-10.13-3.26-1.44-8.43.42-15.89,8.24-29.17,15.56-31,17.72-31.8,24.88c-.5,4.44,22.88,43.45,28.56,44,12.65,1.3,26-8.13,33-12.38,11.74-7.08,20.14-12.31,28.28-17.82C259.25,218.4,262.05,216.14,262.83,213.26Z" style="fill:#f0f0f0"></path><path d="M171.86,222.72c3.1,5,12.11,18.64,15.24,22.67s8.57,8.61,9.84,3.44-3.58-11.69-6.86-16.81-12.48-17.21-15.45-21.16-7.94-7.8-9.11-3.18S168.77,217.7,171.86,222.72Z" style="fill:#e0e0e0"></path><path d="M192,254.61c1.7-6.21-.81-9.45-4.24-15.22s-11.37-16.92-14.63-21.7-6.89-9.47-8.85-10.13-3.27-1.44-8.43.42-15.9,8.24-29.17,15.56-31,17.71-31.8,24.88c-.51,4.43,22.88,43.45,28.56,44,12.64,1.3,26-8.13,33-12.38,11.75-7.08,20.15-12.31,28.28-17.83C188.4,259.75,191.2,257.49,192,254.61Z" style="fill:#f0f0f0"></path><path d="M101,264.07c3.09,5,12.11,18.64,15.24,22.67s8.57,8.6,9.83,3.44-3.57-11.69-6.86-16.81-12.47-17.21-15.45-21.16-7.94-7.8-9.11-3.18S97.93,259.05,101,264.07Z" style="fill:#e0e0e0"></path></g></g><g id="freepik--Character--inject-170"><path id="freepik--shadow--inject-170" d="M349.13,299.64a46.51,46.51,0,0,0-10.41-3.28c-7.69-1.61-15.65-2.3-23.2-4.24-8-2.07-15.91-4.29-24.09-5.65a120.11,120.11,0,0,1-24.54-7.19l-.95-.38C253.75,274,242,266.09,229.1,263.35a54.58,54.58,0,0,0-22.41-.09c-1.64.34-3.49.95-4.11,2.51-.84,2.13,1.17,4.19,2.65,5.94,4.58,5.4,5.21,13.19,9.2,19,4.11,6,12,11.23,18.71,14.09,10.2,4.35,17.49,6.84,28,10.45,5.25,1.81,12.69,3.24,17.56,5.93,6.47,3.58,14.27,8.34,20.4,12.47,7.23,4.86,16,9.23,24.65,10.65,4.72.78,9.81.34,13.87-2.18.58-.36,1.21-.91,1.1-1.59s-1-1-1.67-1.18l-4.26-1c-.43-.1-.95-.32-.93-.76s.48-.59.87-.69a4.67,4.67,0,0,0,1.71-.69,1.46,1.46,0,0,0,.54-1.64c-.33-.74-1.33-.84-2.14-.83-6.27.07-12.73-.19-18.45-2.76-1.47-.66-2.77-1.41-2.88-3.1a6.81,6.81,0,0,1,1.52-5,12.58,12.58,0,0,1,4.71-3.19c2.7-1.19,5.5-1.77,8.07-3.34a22.38,22.38,0,0,0,6.42-5.88,6.67,6.67,0,0,1,1.5-1.67c1.24-.83,2.43-.47,3.76-.41,1.62.07,3.26.05,4.87,0a31.59,31.59,0,0,0,9.51-1.53,4.65,4.65,0,0,0,2.43-1.58C356,302.63,350.84,300.46,349.13,299.64Z" style="opacity:0.2"></path><g id="freepik--light--inject-170"><circle cx="348.59" cy="252.37" r="30.33" transform="translate(-76.35 320.41) rotate(-45)" style="fill:#BA68C8;opacity:0.1"></circle><circle cx="348.59" cy="252.37" r="40.2" transform="translate(-76.35 320.41) rotate(-45)" style="fill:#BA68C8;opacity:0.1"></circle><circle cx="348.59" cy="252.37" r="50.08" transform="translate(43.64 556.03) rotate(-80.78)" style="fill:#BA68C8;opacity:0.1"></circle></g><g id="freepik--character--inject-170"><path d="M317.08,242.68c-.1,3.54-.25,7.08-.57,10.6a25.64,25.64,0,0,1-1.77,8.42,16.34,16.34,0,0,1-6.2,6.88,25.51,25.51,0,0,1-8.74,3.29,17,17,0,0,1-11.16-1.49c-2.8-1.49-5.07-4.3-5.18-7.47s2.47-6.41,5.64-6.36a6.73,6.73,0,0,1,2.1-11.47,20.32,20.32,0,0,1,4.6-.71c1.94-.24,3.7-.6,5.08-2.09A13.14,13.14,0,0,0,303,238.8c1.19-2.57,2.18-5.23,3.56-7.69A15.41,15.41,0,0,1,312.3,225a9.69,9.69,0,0,1,6.66-1.24c1.33.19,2.25.32,1.6,2.09-.29.79-2.07,2.53-2.24,3.38a50.52,50.52,0,0,0-1.12,6.21C317,237.81,317.14,240.28,317.08,242.68Z" style="fill:#263238"></path><path d="M347,263.44c.85-.4,1.8-5.85,1.39-9.86s1.44-4.77,2.17-3.45a6.63,6.63,0,0,1,.82,2.4,10.41,10.41,0,0,1,4.64,3.24c1.88,2.41,4.1,5.33,2.72,11.06-.26,1.1-1.48,2.53-2.14,4.12-1,2.48-.22,13.2-1.11,24.33-.26,3.24-1.23,8.54-4.2,9.56C348,306,344,302.52,341.57,300c-7.27-7.42-13.26-15.05-13.26-15.05l-5.72-27.32c7-2.23,9.6,1.39,13.39,8.28,4.76,8.65,9,17.3,9,17.3,1.12-7,1.94-8.34.54-11.25" style="fill:#ffa8a7"></path><path d="M360,253.36l-18.43-11.53a1.19,1.19,0,0,0-1.19-.12c-.29.16-1.45.73-1.77.88a1.16,1.16,0,0,0-.65.94L336,254.78a2.81,2.81,0,0,0,1.18,2.63l18.44,11.53a1.18,1.18,0,0,0,1.11.15c.33-.14,1.59-.76,1.92-.94a1.2,1.2,0,0,0,.57-.91c.49-2.82,1.45-8.42,1.93-11.24A2.8,2.8,0,0,0,360,253.36Z" style="fill:#BA68C8"></path><path d="M358.15,254.27l-18.44-11.53a1.16,1.16,0,0,0-1.23-.1l.1-.06c.33-.14,1.49-.72,1.78-.87a1.15,1.15,0,0,1,1.18.12L360,253.37a2.47,2.47,0,0,1,.65.64l-1.82.89s0,0,.05.09A2.33,2.33,0,0,0,358.15,254.27Z" style="opacity:0.35000000000000003"></path><path d="M337.19,257.41l18.44,11.53a1.08,1.08,0,0,0,1.76-.79c.49-2.82,1.45-8.42,1.93-11.25a2.78,2.78,0,0,0-1.17-2.63l-18.44-11.53a1.08,1.08,0,0,0-1.77.79L336,254.78A2.81,2.81,0,0,0,337.19,257.41Z" style="opacity:0.45"></path><path d="M357.4,261.21a1.26,1.26,0,0,1,.48,1.15.46.46,0,0,1-.75.34,1.2,1.2,0,0,1-.47-1.15A.45.45,0,0,1,357.4,261.21Z" style="opacity:0.35000000000000003"></path><path d="M338.65,256.6a1.42,1.42,0,0,1-.55-1.22l2-11.2,16.5,10.37a1.44,1.44,0,0,1,.55,1.22l-2,11.19Z" style="fill:#BA68C8"></path><path d="M338.65,256.6a1.42,1.42,0,0,1-.55-1.22l2-11.2,16.5,10.37a1.44,1.44,0,0,1,.55,1.22l-2,11.19Z" style="fill:#fff;opacity:0.7000000000000001"></path><path d="M355.23,266.49l-.08.47L338.64,256.6a1.45,1.45,0,0,1-.54-1.22l2-11.2.4.26-1.93,10.73a1.44,1.44,0,0,0,.55,1.22Z" style="fill:#BA68C8"></path><path d="M361.16,256c-.48,2.82-1.45,8.42-1.93,11.24a1.17,1.17,0,0,1-.57.91c-.33.18-1.59.8-1.91,1l-.08,0a1.15,1.15,0,0,0,.73-1c.48-2.82,1.44-8.42,1.92-11.25a2.72,2.72,0,0,0-.52-2l1.84-.9A2.82,2.82,0,0,1,361.16,256Z" style="opacity:0.55"></path><path d="M346.7,263.41c-.58-.61-.62-2.39-1.53-4-1.06-1.89-4-1.74-3.25-.23s.91,2.85,1.16,6.56,1.07,4.09,2.42,6.24l1.51-8.34Z" style="fill:#ffa8a7"></path><path d="M357.17,245.48h-.07a.74.74,0,0,1-.68-.81l.54-5.82a.75.75,0,0,1,1.5.13l-.55,5.83A.74.74,0,0,1,357.17,245.48Z" style="fill:#BA68C8"></path><path d="M361.9,247.63a.69.69,0,0,1-.45-.16.75.75,0,0,1-.14-1.05l3.91-5.06a.75.75,0,0,1,1-.14.74.74,0,0,1,.13,1.05l-3.9,5.07A.76.76,0,0,1,361.9,247.63Z" style="fill:#BA68C8"></path><path d="M364.78,252a.75.75,0,0,1-.24-1.46l5.83-2a.75.75,0,0,1,.49,1.42l-5.83,2A.74.74,0,0,1,364.78,252Z" style="fill:#BA68C8"></path><path d="M345,283.2c-.93,3.24-3,8.81-2,11.52,0,0-3-4.06.71-14.12Z" style="fill:#f28f8f"></path><path d="M225.57,206.41a9.2,9.2,0,0,1,3.91,2.73,7.4,7.4,0,0,1,1.37,5.31c-.19,1.52-.88,3.29-.89,4.81a26.83,26.83,0,0,0,1.35,6.11A155.76,155.76,0,0,0,239.87,247c2.93,6.33,6.4,12.92,7.76,19.83,7.77,1.4,15.71,3.43,19.26,4.21a27.62,27.62,0,0,1,8.34,1.18c12,4.38,13.3,14.26,16.73,20.25L283,301.23c-12.15-6.86-38.19-19-44.62-22s-8.67-3.57-10.3-6.33a30.74,30.74,0,0,1-2.93-8.42c-1.85-7.84-2.46-16.54-3.94-24.47-.79-4.24-1.58-8.48-2.4-12.71a40.4,40.4,0,0,0-1.26-5.1,22.07,22.07,0,0,0-3.4-6.22c-2.38-3.2-4.86-6.31-7.07-9.66a12.74,12.74,0,0,1-2-4.19,10.66,10.66,0,0,1,.72-5.78c.63-1.74,1.22-3.43,1.8-5.19a3.18,3.18,0,0,1,.8-1.46c1.2-1,3,.17,3.7,1.2a19.91,19.91,0,0,0,1.53,2.19,10.74,10.74,0,0,0,1.39,1.11,14.14,14.14,0,0,1,3.66,4.08c1,1.61,1.56,3.34,2.64,4.88A11,11,0,0,0,225.57,206.41Z" style="fill:#ffa8a7"></path><path d="M231.1,224.67,222.62,249h0c.72,5.23,1.39,10.54,2.56,15.5a30.74,30.74,0,0,0,2.93,8.42c1.63,2.76,3.88,3.31,10.3,6.33l.35.16.43.2.69.33.54.25.58.27.59.28,2.54,1.2.34.16,1.2.56.31.15,1.49.7.1,0,1.72.81.06,0,2.53-9.6c-.24.08-12.29-2-12.29-2a20.83,20.83,0,0,0,2-8.64c.14-3.18.09-9,0-13.47-.59-1.23-1.17-2.47-1.73-3.68a155.76,155.76,0,0,1-8.56-21.62Z" style="fill:#f28f8f"></path><path d="M280.58,274.8a14.89,14.89,0,0,0-7.71-3.55c-3.23-.6-4.37-.43-6.79-.93s-6.29-1.36-6.29-1.36-2.11-.17-5.52,1.83-8.52,7.13-9.23,13.77,2.27,9.75,2.27,9.75l20.44,6.25Z" style="fill:#BA68C8"></path><path d="M280.58,274.8a14.89,14.89,0,0,0-7.71-3.55c-3.23-.6-4.37-.43-6.79-.93s-6.29-1.36-6.29-1.36-2.11-.17-5.52,1.83-8.52,7.13-9.23,13.77,2.27,9.75,2.27,9.75l20.44,6.25Z" style="fill:#fff;opacity:0.30000000000000004"></path><path d="M272.69,278c-5.27-4.29-13.9-1.66-13.9-1.66s-6.62-1.49-8.94-1.81a20.7,20.7,0,0,0-2.13,2.77l2.61,4.36,9.55,1.89S278,282.24,272.69,278Z" style="opacity:0.1"></path><path d="M277.9,280.57l-6.28,14.64-6.6,15.4c-20-6.86-43.18-18.83-47.63-24.76-2.31-3.09,1.7-19.26,6.06-34.05,3.54-11.94,7.3-23,8.16-25.48h0a1,1,0,0,0,.08-.2,1.13,1.13,0,0,0-.37-.75,26.18,26.18,0,0,1-1.36-6.1c0-1.52.69-3.29.89-4.81a7.19,7.19,0,0,0,.05-1.23,16.81,16.81,0,0,1,1.91-.34c1.49-.15,2.93-.5,4.42-.62,2.77-.24,6.23.7,7.28,3.55a8,8,0,0,1,.35,3.75q-.06.54-.15,1.08c-.59,3.27-2.61,6.29-3.14,9.61-.63,4.8-.93,11.17-1.27,17.66-.55,10.66-1.21,21.63-3.66,26.47a146.78,146.78,0,0,1,21.23,4.1C268.66,275,277.9,280.57,277.9,280.57Z" style="fill:#ffa8a7"></path><path d="M230.85,214.47c-.2,1.52-.88,3.28-.89,4.8a26.14,26.14,0,0,0,1.36,6.11,1.13,1.13,0,0,1,.37.75,23.85,23.85,0,0,0-.38-4.88c-.29-2.22,1.14-5.6.92-8.27-.43.07-.87.15-1.33.26A7.19,7.19,0,0,1,230.85,214.47Z" style="fill:#f28f8f"></path><path d="M227.07,275.74c6.18.5,9.57-1.36,9.57-1.36a25.52,25.52,0,0,0,1.92-6.71C236.73,273.09,227.07,275.74,227.07,275.74Z" style="opacity:0.05"></path><path d="M278.51,280.13a32.23,32.23,0,0,0-12.57-3.27c-4-.12-6.52,1-8.11,1.09s-3.7-1.22-9.11-2.13c0,0-1.52-.46-4.52,1.48s-5.8,6.9-6,9.35c0,0,7.31,4.48,6.87,4.88s-7.84-2-7.84-2a13.36,13.36,0,0,0-.77,5.66,16.22,16.22,0,0,0,1.88,5.35s19.92,10,27.46,10.42S278.51,280.13,278.51,280.13Z" style="fill:#BA68C8"></path><path d="M278.51,280.13a32.23,32.23,0,0,0-12.57-3.27c-4-.12-6.52,1-8.11,1.09s-3.7-1.22-9.11-2.13c0,0-1.52-.46-4.52,1.48s-5.8,6.9-6,9.35c0,0,7.31,4.48,6.87,4.88s-7.84-2-7.84-2a13.36,13.36,0,0,0-.77,5.66,16.22,16.22,0,0,0,1.88,5.35s19.92,10,27.46,10.42S278.51,280.13,278.51,280.13Z" style="fill:#fff;opacity:0.5"></path><path d="M311,258.35A62.61,62.61,0,0,0,295.11,263c-3.68,1.89-5.43,14.29-7.92,17.92a32.93,32.93,0,0,0-6.68-6.43c-2.39-.22-10.54,3.46-15.1,12.38-4.85,9.49-3.89,19.06-.73,24.35,7.32,2.27,16,5.31,30.59,4.22,6.66-.49,16.23-6,20.83-9.4,3-2.21,4.28-3.28,6.73-5.26,10.31-2.13,10.68-11.12,8.83-18.74-2.22-9.1-2.84-14.53-6.45-20.45C323.62,258.94,318,257.45,311,258.35Z" style="fill:#455a64"></path><path d="M318.34,300.51c-2.84,1.75-7.1,1.81-11,.39s-6.13-5.88-6-9.37c0,0-2.19,8,4.85,11C313.68,305.78,318.19,301.48,318.34,300.51Z" style="fill:#37474f"></path><circle cx="330.25" cy="238.72" r="15.48" transform="translate(-66.21 144.55) rotate(-22.5)" style="fill:#263238"></circle><path d="M314.06,249.74l-3.72,10.35-6.43,1.47c.64,1.87,6.41,16.69,9.6,17.91,2.78,1,10.24,1.24,11.7-2.37.55-1.35-1.61-12.45-1.61-12.45l.29-.76Z" style="fill:#ffa8a7"></path><path d="M329.74,253.13c1-.69,2-1.44,3.29-.75a4.71,4.71,0,0,1,1.4,1.34,13.42,13.42,0,0,1,2.65,8.38,13.27,13.27,0,0,1-1.17,5.07c-.67,1.49-1.81,2.67-2.28,4.24-.64,2.12-.18,4.39.06,6.6a8.32,8.32,0,0,1-1.55,6.32,14.91,14.91,0,0,0-1.63-5.18,25.9,25.9,0,0,0-3-3.66,22.31,22.31,0,0,1-3.58-5.19,16.07,16.07,0,0,1-1.21-3.34l1.21-3.07c.92-2.12,1.18-3.67,2-5.81a19.64,19.64,0,0,1,1.52-3.17A7.14,7.14,0,0,1,329.74,253.13Z" style="fill:#263238"></path><path d="M337.13,232.15l-1,.48s-11-6-17.17-2.69-5.75,10.47-5.33,13.17l-.2-.17a7.44,7.44,0,0,0-1.35-2.47c-.9-1.08-4.56-1.78-6.34,1.45-1.65,3,.4,7.06,2.6,8.52a4,4,0,0,0,.73.39,6.21,6.21,0,0,0,2.51.5,2.52,2.52,0,0,0,2.52-1.59h0L315.3,254a20.9,20.9,0,0,0,2.05,6.05c1.18,1.27,4.54,3.38,5.24,3.43l1.07.42c3.28,1.1,6.68,2.14,8.6,1.64s5.94-2.66,8-13.67C342.61,238.83,339.37,234,337.13,232.15Z" style="fill:#ffa8a7"></path><path d="M309.73,236.08c0-.25-.1-1.91,0-2.13,2.37-8.34,8.14-12.09,18.15-12.12a19.74,19.74,0,0,1,9.19,3c4.14,2.55,2.85,8.34,1.11,12.71a8,8,0,0,1-5.91,5.16,1.18,1.18,0,0,1-1.17-.3,1.33,1.33,0,0,1-.13-.79l.24-4.37A18.54,18.54,0,0,1,317.34,246a5.43,5.43,0,0,1-2.09-.11c-1.38-.42-1.31-1.33-1.74-2.46a10.94,10.94,0,0,0-1.07-2.17c-.57-.84-1.72-1.16-2.33-1.91A4,4,0,0,1,309.73,236.08Z" style="fill:#263238"></path><path d="M315,252.5s.27,6.28,1.63,8.26a12.51,12.51,0,0,0,6.42,4.7l.81-1.57a25.22,25.22,0,0,1-2.69-1.22,15.43,15.43,0,0,1-2.93-2.05C316.66,259.11,315.37,253.5,315,252.5Z" style="fill:#f28f8f"></path><path d="M323.08,263.56s-2.86,7.93-3.93,9.27c-.66.83-2.11.55-3,.11,0,0,1.94,1.67,3.36.35s4.43-9.4,4.43-9.4Z" style="fill:#f28f8f"></path><path d="M328.94,249.29a1.41,1.41,0,1,1-1.32-1.56A1.44,1.44,0,0,1,328.94,249.29Z" style="fill:#263238"></path><path d="M328.61,244.46l-3.36.82a1.83,1.83,0,0,1,1.31-2.14A1.68,1.68,0,0,1,328.61,244.46Z" style="fill:#263238"></path><path d="M327.32,256.92l3.92,2.49a2.27,2.27,0,0,1-3.18.8A2.44,2.44,0,0,1,327.32,256.92Z" style="fill:#f28f8f"></path><path d="M339.69,245.66l-3.14-1.51a1.67,1.67,0,0,1,2.27-.86A1.83,1.83,0,0,1,339.69,245.66Z" style="fill:#263238"></path><path d="M338.72,249.29a1.44,1.44,0,0,1-1.5,1.38,1.46,1.46,0,0,1-1.32-1.57,1.43,1.43,0,0,1,1.5-1.37A1.45,1.45,0,0,1,338.72,249.29Z" style="fill:#263238"></path><polygon points="333 248.54 331.66 257.02 335.89 256.49 333 248.54" style="fill:#f28f8f"></polygon><path d="M298.62,261.56c-9.26,2.25-12.44,6.38-13.59,21.3-.56,7.29-1.73,25.28-1.2,29.11.72,5.2,1.06,8,4.08,10.18,4.68,3.42,27.41,16.38,33.28,18.39,4.83,1.66,10.86,2.27,15.63.16.89-.39,1.86-1.15,1.66-2.09a1.55,1.55,0,0,0-1-1.05,5.17,5.17,0,0,0-1.47-.28,33.39,33.39,0,0,1-9.72-2.45c-.31-.13-.68-.43-.51-.72a.59.59,0,0,1,.48-.23c2-.31,4.19-.51,5.73-2,1-1,.18-2-3-1.75s-7.06-1.64-11.1-1.12l-19.76-16.28,2.36-26.91S303.66,266.37,298.62,261.56Z" style="fill:#ffa8a7"></path></g></g></svg>